<mxfile host="65bd71144e">
    <diagram id="-rIru1ThtsBLkICqNLMq" name="Page-1">
        <mxGraphModel dx="680" dy="827" grid="1" gridSize="10" guides="1" tooltips="1" connect="1" arrows="1" fold="1" page="1" pageScale="1" pageWidth="850" pageHeight="1100" math="0" shadow="0">
            <root>
                <mxCell id="0"/>
                <mxCell id="1" parent="0"/>
                <mxCell id="4" style="edgeStyle=none;html=1;entryX=0.5;entryY=0;entryDx=0;entryDy=0;" edge="1" parent="1" source="2" target="3">
                    <mxGeometry relative="1" as="geometry"/>
                </mxCell>
                <mxCell id="2" value="START" style="ellipse;whiteSpace=wrap;html=1;fillColor=#f8cecc;strokeColor=#b85450;gradientColor=#ea6b66;" vertex="1" parent="1">
                    <mxGeometry x="365" y="120" width="120" height="80" as="geometry"/>
                </mxCell>
                <mxCell id="6" style="edgeStyle=none;html=1;entryX=0.5;entryY=0;entryDx=0;entryDy=0;" edge="1" parent="1" source="3" target="5">
                    <mxGeometry relative="1" as="geometry"/>
                </mxCell>
                <mxCell id="3" value="fahr = 0" style="rounded=0;whiteSpace=wrap;html=1;fillColor=#dae8fc;strokeColor=#6c8ebf;gradientColor=#7ea6e0;" vertex="1" parent="1">
                    <mxGeometry x="368" y="230" width="115" height="20" as="geometry"/>
                </mxCell>
                <mxCell id="10" style="edgeStyle=none;html=1;entryX=0.5;entryY=0;entryDx=0;entryDy=0;" edge="1" parent="1" source="5" target="9">
                    <mxGeometry relative="1" as="geometry"/>
                </mxCell>
                <mxCell id="5" value="print celcius and fahrenheit" style="shape=parallelogram;perimeter=parallelogramPerimeter;whiteSpace=wrap;html=1;fixedSize=1;fillColor=#dae8fc;strokeColor=#6c8ebf;gradientColor=#7ea6e0;" vertex="1" parent="1">
                    <mxGeometry x="365" y="270" width="120" height="50" as="geometry"/>
                </mxCell>
                <mxCell id="13" style="edgeStyle=none;html=1;entryX=0.5;entryY=0;entryDx=0;entryDy=0;" edge="1" parent="1" source="7" target="12">
                    <mxGeometry relative="1" as="geometry"/>
                </mxCell>
                <mxCell id="20" style="edgeStyle=none;html=1;entryX=0.5;entryY=0;entryDx=0;entryDy=0;rounded=0;curved=0;" edge="1" parent="1" source="7" target="19">
                    <mxGeometry relative="1" as="geometry">
                        <Array as="points">
                            <mxPoint x="280" y="460"/>
                            <mxPoint x="280" y="670"/>
                            <mxPoint x="280" y="840"/>
                            <mxPoint x="430" y="840"/>
                        </Array>
                    </mxGeometry>
                </mxCell>
                <mxCell id="7" value="celcius &amp;lt;= 100" style="rhombus;whiteSpace=wrap;html=1;fillColor=#f5f5f5;gradientColor=#b3b3b3;strokeColor=#666666;" vertex="1" parent="1">
                    <mxGeometry x="378" y="410" width="95" height="100" as="geometry"/>
                </mxCell>
                <mxCell id="11" style="edgeStyle=none;html=1;entryX=0.5;entryY=0;entryDx=0;entryDy=0;" edge="1" parent="1" source="9" target="7">
                    <mxGeometry relative="1" as="geometry"/>
                </mxCell>
                <mxCell id="9" value="int celcius = 0" style="rounded=0;whiteSpace=wrap;html=1;fillColor=#dae8fc;strokeColor=#6c8ebf;gradientColor=#7ea6e0;" vertex="1" parent="1">
                    <mxGeometry x="368" y="350" width="115" height="20" as="geometry"/>
                </mxCell>
                <mxCell id="15" style="edgeStyle=none;html=1;entryX=0.5;entryY=0;entryDx=0;entryDy=0;" edge="1" parent="1" source="12" target="14">
                    <mxGeometry relative="1" as="geometry"/>
                </mxCell>
                <mxCell id="12" value="fahr = (celcius * 9.0&lt;div&gt;/ 5.0) + 32&amp;nbsp;&lt;/div&gt;" style="rounded=0;whiteSpace=wrap;html=1;fillColor=#dae8fc;strokeColor=#6c8ebf;gradientColor=#7ea6e0;" vertex="1" parent="1">
                    <mxGeometry x="368" y="550" width="115" height="40" as="geometry"/>
                </mxCell>
                <mxCell id="17" style="edgeStyle=none;html=1;entryX=0.5;entryY=0;entryDx=0;entryDy=0;" edge="1" parent="1" source="14" target="16">
                    <mxGeometry relative="1" as="geometry"/>
                </mxCell>
                <mxCell id="14" value="print celcius, fahr" style="shape=parallelogram;perimeter=parallelogramPerimeter;whiteSpace=wrap;html=1;fixedSize=1;fillColor=#dae8fc;strokeColor=#6c8ebf;gradientColor=#7ea6e0;" vertex="1" parent="1">
                    <mxGeometry x="365.5" y="630" width="120" height="50" as="geometry"/>
                </mxCell>
                <mxCell id="18" style="edgeStyle=none;html=1;entryX=1;entryY=0.5;entryDx=0;entryDy=0;rounded=0;curved=0;" edge="1" parent="1" source="16" target="7">
                    <mxGeometry relative="1" as="geometry">
                        <mxPoint x="425.5" y="800" as="targetPoint"/>
                        <Array as="points">
                            <mxPoint x="426" y="800"/>
                            <mxPoint x="550" y="800"/>
                            <mxPoint x="550" y="630"/>
                            <mxPoint x="550" y="460"/>
                        </Array>
                    </mxGeometry>
                </mxCell>
                <mxCell id="16" value="celcius += 10" style="rounded=0;whiteSpace=wrap;html=1;fillColor=#dae8fc;strokeColor=#6c8ebf;gradientColor=#7ea6e0;" vertex="1" parent="1">
                    <mxGeometry x="368" y="710" width="115" height="40" as="geometry"/>
                </mxCell>
                <mxCell id="19" value="START" style="ellipse;whiteSpace=wrap;html=1;fillColor=#f8cecc;strokeColor=#b85450;gradientColor=#ea6b66;" vertex="1" parent="1">
                    <mxGeometry x="370" y="880" width="120" height="80" as="geometry"/>
                </mxCell>
                <mxCell id="21" value="TRUE" style="text;html=1;align=center;verticalAlign=middle;resizable=0;points=[];autosize=1;strokeColor=#82b366;fillColor=#d5e8d4;gradientColor=#97d077;" vertex="1" parent="1">
                    <mxGeometry x="430" y="510" width="60" height="30" as="geometry"/>
                </mxCell>
                <mxCell id="22" value="FALSE" style="text;html=1;align=center;verticalAlign=middle;resizable=0;points=[];autosize=1;strokeColor=#b85450;fillColor=#f8cecc;gradientColor=#ea6b66;" vertex="1" parent="1">
                    <mxGeometry x="320" y="470" width="60" height="30" as="geometry"/>
                </mxCell>
            </root>
        </mxGraphModel>
    </diagram>
</mxfile>